<?xml version="1.0" encoding="utf-8"?>
<!-- Generator: Adobe Illustrator 18.1.1, SVG Export Plug-In . SVG Version: 6.00 Build 0)  -->
<svg version="1.1" id="Layer_1" xmlns="http://www.w3.org/2000/svg" xmlns:xlink="http://www.w3.org/1999/xlink" x="0px" y="0px"
	 viewBox="0 0 1424 526" enable-background="new 0 0 1424 526" xml:space="preserve">
<g>
	<g>
		<path fill="#D3222A" d="M37.9,138.7c0-18.6,14.7-27.7,29.3-27.7H142V98H66.2c-27.9,0-43.3,18.9-43.3,41
			c0,63.3,117.3,30.1,117.3,86.6c0,17.2-11.4,28.3-41.1,28.3H23v13h72.9c37.6,0,59.4-13.7,59.4-43.4
			C155.2,156.7,37.9,188.8,37.9,138.7z"/>
		<path fill="#D3222A" d="M259.6,258c-36.7,0-64.4-28.3-70.3-62h-14.5c6.2,41.8,40.8,74.9,84.8,74.9c44,0,78.7-33.1,84.8-74.9h-14.5
			C324,229.8,296.3,258,259.6,258z"/>
		<path fill="#D3222A" d="M259.6,107.1c37.7,0,66,29.9,70.8,64.9h14.4c-5-43.2-40.2-77.8-85.2-77.8c-45,0-80.2,34.6-85.2,77.8h14.4
			C193.6,137,221.9,107.1,259.6,107.1z"/>
		<rect x="380" y="17" fill="#D3222A" width="14" height="155"/>
		<rect x="380" y="196" fill="#D3222A" width="14" height="71"/>
		<path fill="#D3222A" d="M514.7,258c-36.7,0-64.4-28.3-70.3-62h-14.5c6.2,41.8,40.8,74.9,84.8,74.9c44,0,78.7-33.1,84.8-74.9H585
			C579.1,229.8,551.4,258,514.7,258z"/>
		<path fill="#D3222A" d="M514.7,107.1c37.7,0,66,29.9,70.8,64.9h14.4c-5-43.2-40.2-77.8-85.2-77.8c-45,0-80.2,34.6-85.2,77.8h14.4
			C448.7,137,476.9,107.1,514.7,107.1z"/>
		<rect x="629" y="196" fill="#D3222A" width="14" height="71"/>
		<path fill="#D3222A" d="M643,165.8c0-35.4,24.3-58.7,54-58.7s54,23.2,54,58.7v6.2h14v-8c0-41.8-30.1-69.7-68-69.7
			s-68,27.9-68,69.7v8h14V165.8z"/>
		<rect x="751" y="196" fill="#D3222A" width="14" height="71"/>
		<path fill="#D3222A" d="M879.5,258c-36.7,0-64.4-28.3-70.3-62h-14.5c6.2,41.8,40.8,74.9,84.8,74.9c44,0,78.7-33.1,84.8-74.9h-14.5
			C943.9,229.8,916.2,258,879.5,258z"/>
		<path fill="#D3222A" d="M879.5,107.1c37.7,0,66,29.9,70.8,64.9h14.4c-5-43.2-40.2-77.8-85.2-77.8c-45,0-80.2,34.6-85.2,77.8h14.4
			C813.5,137,841.7,107.1,879.5,107.1z"/>
		<rect x="994" y="196" fill="#D3222A" width="14" height="71"/>
		<path fill="#D3222A" d="M1008,155c0-32.2,22.2-47.9,44-47.9c22.2,0,44,15.7,44,47.9v17h13v-17c0-32.2,21.8-47.9,44-47.9
			c21.8,0,44,15.7,44,47.9v17h14v-17c0-39.3-25.7-61-57.6-61c-26.8,0-43.3,12-50.4,33h-0.7c-7.2-21-23.7-33-50.6-33
			c-31.8,0-57.7,21.7-57.7,61v17h14V155z"/>
		<rect x="1096" y="196" fill="#D3222A" width="13" height="71"/>
		<rect x="1197" y="196" fill="#D3222A" width="14" height="71"/>
		<path fill="#D3222A" d="M1326,258c-36.7,0-64.4-28.3-70.3-62h-14.5c6.2,41.8,40.8,74.9,84.8,74.9s78.7-33.1,84.8-74.9h-14.5
			C1390.5,229.8,1362.7,258,1326,258z"/>
		<path fill="#D3222A" d="M1326,107.1c37.7,0,66,29.9,70.8,64.9h14.4c-5-43.2-40.2-77.8-85.2-77.8s-80.2,34.6-85.2,77.8h14.4
			C1260,137,1288.3,107.1,1326,107.1z"/>
	</g>
	<g>
		<path fill="#808080" d="M443.6,388.1c0-18.6,14.7-28.1,29.3-28.1H548v-13h-76.1c-27.9,0-43.3,19.2-43.3,41.3
			c0,63.3,117.3,30.5,117.3,87c0,17.2-11.4,28.7-41.1,28.7H429v13h72.5c37.6,0,59.4-14,59.4-43.7
			C560.9,406.4,443.6,438.1,443.6,388.1z"/>
		<polygon fill="#808080" points="599,360 659,360 659,347 599,347 599,301 585,301 585,422 599,422 		"/>
		<path fill="#808080" d="M585,468.3c0,30,17.3,48.7,49.5,48.7H659v-13h-27.4c-20,0-32.6-12.8-32.6-34.2V446h-14V468.3z"/>
		<rect x="801" y="347" fill="#808080" width="14" height="75"/>
		<path fill="#808080" d="M801,449c0,35.4-24.8,58.7-54.5,58.7S692,484.4,692,449v-3h-13v4.8c0,41.8,30.1,69.7,68,69.7
			s68-27.9,68-69.7V446h-14V449z"/>
		<rect x="679" y="347" fill="#808080" width="13" height="75"/>
		<path fill="#808080" d="M925.3,507.7c-30.6,0-60.9-25.3-67.1-61.7h-14.6c5.9,43.9,39.8,74.5,81.7,74.5c41.9,0,75.8-30.6,81.7-74.5
			h-13.9C987.4,479.6,961.2,507.7,925.3,507.7z"/>
		<path fill="#808080" d="M925.2,356.7c22.5,0,38.8,9.3,52.8,24.7v-16.1c-10-8.6-26.7-21.5-52.8-21.5c-43,0-77.5,32.3-82,78.1h14.5
			C862.4,383.7,893.6,356.7,925.2,356.7z"/>
		<rect x="994" y="267" fill="#808080" width="14" height="155"/>
		<path fill="#808080" d="M1056.1,310.2c6.1,0,10.7-4.6,10.7-10.7s-4.6-10.7-10.7-10.7s-10.7,4.6-10.7,10.7S1050,310.2,1056.1,310.2
			z"/>
		<rect x="1049" y="347" fill="#808080" width="14" height="75"/>
		<rect x="1049" y="446" fill="#808080" width="14" height="71"/>
		<path fill="#808080" d="M1179.4,356.7c37.9,0,66.2,30.1,70.8,65.3h14.4c-4.8-43.3-40.1-78.1-85.3-78.1s-80.4,34.8-85.3,78.1h14.4
			C1113.2,386.8,1141.5,356.7,1179.4,356.7z"/>
		<path fill="#808080" d="M1179.4,507.7c-36.6,0-64.2-28.1-70.3-61.7h-14.5c6.3,41.6,40.9,74.5,84.8,74.5s78.5-32.9,84.8-74.5h-14.5
			C1243.6,479.6,1215.9,507.7,1179.4,507.7z"/>
		<path fill="#808080" d="M1295.1,388.1c0-18.6,14.7-28.1,29.3-28.1h75.5v-13h-76.6c-27.9,0-43.3,19.2-43.3,41.3
			c0,63.3,117.3,30.5,117.3,87c0,17.2-11.4,28.7-41.1,28.7H1280v13h73.1c37.6,0,59.4-14,59.4-43.7
			C1412.4,406.4,1295.1,438.1,1295.1,388.1z"/>
	</g>
</g>
</svg>
